<?xml version="1.0" encoding="UTF-8" standalone="no"?>
<!-- Created with Inkscape (http://www.inkscape.org/) -->

<svg
   width="99.774582mm"
   height="79.519035mm"
   viewBox="0 0 99.774582 79.519035"
   version="1.1"
   id="svg1"
   xmlns="http://www.w3.org/2000/svg"
   xmlns:svg="http://www.w3.org/2000/svg">
  <defs
     id="defs1" />
  <g
     id="layer1"
     transform="translate(-53.710415,-81.491665)">
    <path
       style="fill:#000000"
       d="m 80.578116,160.71385 c -0.356933,-0.14253 -3.273964,-0.37035 -6.482292,-0.50628 -3.208329,-0.13592 -6.666762,-0.36284 -7.685408,-0.50426 -1.018646,-0.14141 -2.832139,-0.26323 -4.029985,-0.2707 -1.197847,-0.007 -2.983784,-0.13135 -3.968751,-0.27528 -0.984966,-0.14393 -2.445692,-0.35681 -3.246056,-0.47307 l -1.455209,-0.21139 1.984376,-0.33505 c 1.091406,-0.18428 3.055937,-0.44927 4.365625,-0.58887 1.309687,-0.13959 2.952657,-0.37125 3.651044,-0.51478 0.698387,-0.14354 2.008074,-0.26261 2.910417,-0.26459 3.160389,-0.007 3.611661,-0.51472 1.232521,-1.38679 -0.79419,-0.29111 -1.631951,-0.69267 -1.86169,-0.89236 -0.22974,-0.19969 -0.510263,-0.36307 -0.623384,-0.36307 -0.331146,0 -2.312911,-1.60626 -3.41322,-2.76648 -2.379542,-2.50911 -4.144647,-7.24124 -4.144647,-11.11153 0,-3.27859 1.18922,-6.83671 3.187732,-9.53762 0.915682,-1.23751 3.484086,-3.83646 3.791368,-3.83646 0.07597,0 0.667374,-0.35718 1.314237,-0.79375 0.646863,-0.43656 1.343394,-0.79375 1.547847,-0.79375 0.204454,0 0.484843,-0.11223 0.623088,-0.24941 0.254365,-0.25239 1.544173,-0.61757 3.955521,-1.1199 2.286977,-0.47643 5.674386,-0.0271 8.202084,1.0879 0.291041,0.12839 0.737526,0.30002 0.992187,0.38141 0.666127,0.21289 0.57112,0.82606 -0.264583,1.7076 -1.105742,1.1664 -1.653646,1.87703 -1.653646,2.14478 0,0.37924 -0.827839,0.45825 -1.984375,0.1894 -3.705367,-0.86137 -7.785884,0.38226 -10.718053,3.26656 -2.407962,2.36865 -3.620502,5.41954 -3.352405,8.43503 0.187802,2.11234 0.550407,3.17123 1.698401,4.95972 2.092375,3.25976 4.556503,4.99358 7.697743,5.41633 3.847993,0.51786 6.936478,-0.5442 9.677721,-3.32793 2.245741,-2.28054 2.91725,-4.03975 2.859624,-7.49159 l -0.0424,-2.53994 1.059194,-1.4029 c 0.582557,-0.77159 1.220016,-1.40289 1.416575,-1.40289 0.368761,0 2.074215,2.6507 2.410704,3.74684 0.10447,0.34033 0.31265,0.77199 0.46262,0.95924 0.46722,0.58337 0.35236,4.83692 -0.15514,5.74496 -0.24399,0.43656 -0.44435,0.93896 -0.44525,1.11643 -0.002,0.45205 -0.917141,2.04268 -2.249249,3.91065 -0.998748,1.40052 -2.37479,2.74089 -3.476709,3.38659 -0.198595,0.11637 -0.361082,0.38426 -0.361082,0.59531 0,0.37684 1.350228,0.4287 13.22917,0.50807 1.25298,0.008 1.92376,0.43857 2.24066,1.43704 0.0969,0.30541 0.2734,0.55529 0.39214,0.55529 0.11874,0 0.285859,0.20836 0.371359,0.46302 0.16501,0.49142 0.5426,1.11836 1.29171,2.14472 0.25268,0.3462 0.39448,0.73452 0.31511,0.86294 -0.20014,0.32384 -20.449117,0.26749 -21.267242,-0.0592 z m 25.652094,0.17501 c 0,-0.0647 0.66515,-1.37441 1.47812,-2.91042 l 1.47812,-2.79275 h 3.97807 c 2.18794,0 5.99246,0.13408 8.45449,0.29795 2.46202,0.16387 4.55623,0.21814 4.65378,0.12058 0.18298,-0.18298 -1.21281,-1.45041 -1.61596,-1.46735 -0.23403,-0.01 -2.10305,-1.42449 -2.81154,-2.12804 -1.02454,-1.0174 -2.94242,-3.72094 -3.65871,-5.15752 -1.34366,-2.69477 -1.63762,-3.74048 -1.63762,-5.82548 0,-1.65876 0.1313,-2.25622 0.8129,-3.69881 0.44709,-0.94627 0.92334,-1.7205 1.05833,-1.7205 0.13499,0 0.45695,0.20836 0.71546,0.46302 0.25851,0.25467 1.08888,0.87974 1.84526,1.38907 l 1.37524,0.92604 0.006,1.85208 c 0.009,2.91473 1.39437,6.06627 3.48713,7.93093 1.10977,0.9888 4.06128,2.52011 4.85738,2.52011 0.34375,0 0.93683,0.11856 1.31794,0.26346 1.00443,0.38188 4.7902,-0.33437 6.38973,-1.20891 1.91744,-1.04836 3.88951,-3.10798 4.88687,-5.10382 0.84109,-1.68312 0.87745,-1.8821 0.87684,-4.79864 -6.2e-4,-2.95206 -0.0269,-3.09001 -0.88077,-4.63021 -1.10793,-1.99839 -3.28258,-4.09227 -5.18622,-4.9936 -1.28722,-0.60947 -1.80038,-0.69482 -4.17248,-0.69395 -2.47265,9.1e-4 -2.84097,0.0689 -4.29224,0.79276 -0.87313,0.43546 -1.71489,0.7922 -1.87058,0.79275 -0.15569,5.5e-4 -0.66675,-0.34154 -1.13568,-0.7602 -1.94218,-1.73398 -3.21111,-2.98319 -3.2058,-3.15597 0.009,-0.28695 1.86531,-1.52875 3.03706,-2.03147 4.89337,-2.09941 10.40248,-1.99609 15.0557,0.28236 2.27183,1.11241 5.46331,4.32643 6.64601,6.69296 1.40592,2.81319 1.77999,4.47282 1.79617,7.96915 0.0158,3.41271 -0.1325,4.13349 -1.46939,7.14214 -1.47165,3.31194 -5.49596,7.13836 -8.17056,7.76878 -0.84421,0.19899 -2.02243,1.11209 -1.76651,1.36902 0.10185,0.10225 1.41154,0.2899 2.91042,0.41701 1.49888,0.12711 3.32055,0.34426 4.04816,0.48256 0.7276,0.13829 1.93022,0.25854 2.67249,0.26722 0.74227,0.009 1.69477,0.12603 2.11667,0.2608 0.4219,0.13476 1.3624,0.32899 2.09,0.43161 0.72761,0.10263 1.20386,0.22706 1.05834,0.27651 -0.91587,0.31128 -12.26665,1.32711 -18.78542,1.6812 -2.47386,0.13437 -5.9862,0.36782 -7.80521,0.51877 -3.19506,0.26514 -20.6375,0.4078 -20.6375,0.1688 z m -4.42296,-6.82765 c -0.99954,-1.49159 -3.002879,-4.65591 -4.451879,-7.03182 -1.44899,-2.37591 -2.84158,-4.6381 -3.09464,-5.02708 -0.25306,-0.38899 -0.53985,-0.88584 -0.63731,-1.10412 -0.0975,-0.21828 -0.91391,-1.52797 -1.81433,-2.91042 -1.83518,-2.81762 -2.512368,-4.04452 -2.511892,-4.55092 1.78e-4,-0.18913 0.313582,-0.70106 0.696452,-1.13762 0.38287,-0.43656 1.32929,-1.64259 2.10315,-2.68006 1.1526,-1.54522 1.57518,-1.91785 2.33698,-2.06077 0.51147,-0.0959 0.98869,-0.2695 1.06049,-0.38567 0.21893,-0.35425 -0.53476,-1.19494 -1.55721,-1.73695 l -0.96857,-0.51345 -2.56341,2.63735 c -1.409879,1.45054 -3.218257,3.45301 -4.018622,4.44993 -3.353428,4.17699 -6.340744,7.30108 -6.981429,7.30108 -0.641552,0 -2.014405,-1.32829 -2.014405,-1.94902 0,-0.75376 1.437224,-2.75014 4.889441,-6.79171 0.439506,-0.51454 1.21582,-1.45977 1.725143,-2.10051 0.509323,-0.64075 1.34276,-1.66078 1.852083,-2.26676 0.509323,-0.60597 1.402292,-1.67625 1.984375,-2.37841 0.582084,-0.70216 1.357269,-1.58759 1.722635,-1.96761 0.544549,-0.5664 1.950409,-2.2521 2.983689,-3.5776 0.66539,-0.85357 2.56972,-3.58515 2.56972,-3.68603 0,-0.0658 0.50601,-0.87834 1.12448,-1.80553 1.57507,-2.36131 1.76511,-2.66093 1.97271,-3.11015 0.10088,-0.21828 0.27723,-0.51594 0.39189,-0.66146 0.11466,-0.14552 0.60297,-0.80037 1.08513,-1.45521 l 0.876669,-1.19062 h 3.53903 3.53903 l 0.31182,0.79375 c 0.20586,0.52403 0.23236,1.08593 0.078,1.65364 l -0.23385,0.8599 h -2.45986 c -2.21859,0 -2.51149,0.0584 -2.98629,0.59531 -1.74789,1.97655 -1.80898,3.11609 -0.22726,4.23855 0.58208,0.41307 2.97538,2.14358 5.31844,3.84557 2.34307,1.70199 4.52706,3.27312 4.85333,3.4914 0.32626,0.21828 0.84218,0.60848 1.14649,0.8671 0.7896,0.67108 1.75561,0.85938 2.175,0.42397 0.606,-0.62914 3.57236,-6.19431 3.57236,-6.70207 0,-0.73613 -0.73611,-1.20994 -2.24896,-1.44759 -2.28058,-0.35824 -4.18177,-0.83389 -4.56406,-1.14186 -0.52625,-0.42394 -0.4134,-2.42605 0.16632,-2.95069 0.45836,-0.41481 1.11234,-0.42953 8.40053,-0.18911 4.81169,0.15873 8.2916,0.38777 8.89565,0.5855 0.95585,0.31289 0.99219,0.36941 0.99219,1.54303 0,0.97816 -0.16556,1.41909 -0.84011,2.23743 -1.02755,1.2466 -2.15644,1.74721 -3.94003,1.74721 -1.1775,0 -1.45936,0.10898 -2.12516,0.82173 -0.42219,0.45195 -0.76762,0.9901 -0.76762,1.19588 0,0.20578 -0.28309,0.8226 -0.62909,1.37071 -0.34601,0.5481 -0.88726,1.58753 -1.20279,2.30984 -0.31553,0.72231 -0.86121,1.89379 -1.21261,2.60327 -0.57239,1.15566 -0.60115,1.36229 -0.27625,1.98438 0.41152,0.78792 2.87666,3.02875 5.27572,4.79566 3.31775,2.44353 6.52634,5.08902 6.80599,5.61156 0.76947,1.43775 -1.92049,3.6866 -2.94013,2.45801 -0.18116,-0.21828 -0.44291,-0.39688 -0.58166,-0.39688 -0.24675,0 -2.86766,-1.93384 -4.18084,-3.08483 -1.87609,-1.64438 -6.22439,-4.58808 -6.77729,-4.58808 -0.80008,0 -1.31524,0.81523 -4.68147,7.40833 -3.77292,7.38965 -4.4553,8.77958 -5.75569,11.72373 -0.14075,0.31867 -0.48414,0.93658 -0.76308,1.37314 -0.54073,0.84627 -1.44568,2.44464 -2.05975,3.63803 -0.20592,0.40018 -0.41616,0.7276 -0.46721,0.7276 -0.051,0 -0.91061,-1.22039 -1.91014,-2.71198 z m 2.25446,-14.41979 c 0.47833,-0.5457 1.37542,-1.70656 1.99354,-2.57969 2.84513,-4.01889 3.4228,-5.53076 2.22548,-5.82452 -0.32742,-0.0803 -3.09563,-0.11236 -6.15156,-0.0712 l -5.556249,0.0749 -0.0803,0.69191 c -0.0994,0.85675 2.57818,5.39178 4.341179,7.35266 1.47109,1.6362 2.04977,1.70001 3.22789,0.35595 z m 2.99908,-14.33751 0.62463,-0.51303 -1.45521,-1.41202 c -1.29928,-1.26073 -3.44941,-2.99512 -6.653609,-5.36713 l -1.07223,-0.79375 -1.30808,1.42016 c -1.16743,1.26746 -1.27126,1.47561 -0.96565,1.93589 0.18834,0.28365 0.93287,0.8352 1.65451,1.22567 0.72165,0.39047 1.45518,0.82901 1.63007,0.97453 0.932249,0.77569 3.509649,2.4204 4.200419,2.68041 1.27935,0.48156 2.65055,0.41978 3.34515,-0.15073 z m -23.584748,-2.59064 c -0.494056,-0.18055 -3.116832,-2.83825 -3.85643,-3.90779 -2.057688,-2.97563 -2.868184,-6.37842 -2.867411,-12.03854 5.75e-4,-4.20587 0.03088,-4.45276 0.828296,-6.74687 1.024257,-2.946742 1.40526,-3.719282 3.066456,-6.217714 2.370195,-3.56477 3.651373,-4.98757 6.273811,-6.96733 3.098907,-2.339468 5.258127,-3.306498 10.808327,-4.840632 2.433229,-0.672572 8.949539,-0.669726 11.676119,0.0051 2.95736,0.731943 7.88464,2.907181 8.73125,3.854562 0.0728,0.0814 0.60854,0.46644 1.19062,0.85559 1.42579,0.95321 5.42396,4.87664 5.42396,5.32257 0,0.0712 0.43104,0.7665 0.95786,1.54511 2.27154,3.357202 3.96834,8.141144 4.26125,12.014074 0.12899,1.70548 0.0891,1.9418 -0.36869,2.18682 -0.31786,0.17012 -0.65899,0.18254 -0.89592,0.0326 -0.21044,-0.13313 -1.30909,-0.24389 -2.44145,-0.24612 -1.41816,-0.003 -2.08776,-0.10696 -2.15184,-0.33478 -0.0512,-0.1819 -0.23396,-1.16417 -0.40623,-2.18281 -0.17227,-1.01865 -0.50003,-2.32833 -0.72837,-2.91042 -1.24909,-3.184312 -1.95344,-4.630212 -2.25552,-4.630212 -0.11243,0 -0.20442,-0.12879 -0.20442,-0.2862 0,-0.35331 -1.66085,-2.448062 -2.88977,-3.644742 -4.73312,-4.60892 -11.87884,-6.81328 -18.138369,-5.59545 -2.30083,0.44765 -5.08864,1.52495 -7.14999,2.76301 -4.011066,2.40907 -6.576517,5.481372 -8.630188,10.335264 -0.810764,1.91625 -1.312743,6.00584 -1.023265,8.33646 0.230786,1.85808 0.660081,3.7147 1.026317,4.43863 0.126345,0.24974 0.490784,1.02043 0.809863,1.71264 0.31908,0.6922 0.988109,1.69112 1.486731,2.21982 0.498623,0.52869 0.906587,1.11948 0.906587,1.31287 0,0.19339 -0.352953,0.74228 -0.784339,1.21976 -0.431386,0.47748 -1.115995,1.24425 -1.521354,1.70394 -0.441854,0.50106 -0.895957,0.7777 -1.133891,0.69075 z"
       id="path1" />
    <path
       style="fill:#45515c;fill-opacity:1;stroke-width:0.341247"
       d="m 114.31785,299.95981 c -5.87347,-0.1598 -11.35266,-0.48937 -13.47926,-0.81076 -4.829163,-0.72984 -9.973562,-1.10875 -26.105425,-1.9228 -13.904055,-0.70163 -24.104644,-1.42145 -29.006023,-2.04686 -1.501488,-0.19159 -6.799353,-0.50378 -11.773033,-0.69377 -10.322402,-0.3943 -11.889368,-0.54304 -24.0579365,-2.28361 -7.6529817,-1.09466 -8.6613721,-1.3053 -7.3368175,-1.53252 5.4429726,-0.93369 13.47468,-2.08285 19.792345,-2.83184 4.03525,-0.47839 10.319078,-1.32982 13.964066,-1.89205 4.407202,-0.6798 8.927678,-1.12216 13.494472,-1.32054 7.693233,-0.33417 9.53315,-0.75801 9.335527,-2.15048 -0.118423,-0.83442 -2.70012,-2.28057 -7.323745,-4.10244 -1.310386,-0.51634 -3.217802,-1.44625 -4.238701,-2.06648 -2.10522,-1.27898 -2.854032,-1.69361 -4.087566,-2.26336 -2.502022,-1.15564 -10.654004,-8.21443 -13.596875,-11.77351 -6.306243,-7.62672 -11.354808,-19.17548 -13.360182,-30.56186 -2.749751,-15.61289 1.816759,-33.39818 11.913734,-46.40066 2.925105,-3.76683 10.838555,-11.8848 12.649449,-12.97637 0.778423,-0.46922 2.828579,-1.74832 4.555901,-2.84246 3.885449,-2.46117 5.865093,-3.48211 7.393144,-3.81281 0.649731,-0.14061 1.72466,-0.61057 2.388731,-1.04435 2.034578,-1.32902 12.502265,-3.95565 18.432577,-4.62524 5.032251,-0.56819 12.454985,0.17789 18.999521,1.90968 3.740044,0.98968 11.990427,4.12122 12.829607,4.86965 1.24065,1.10648 0.61093,2.30446 -3.85307,7.3301 -1.878906,2.1153 -3.757715,4.5814 -4.175122,5.4802 -0.494669,1.06516 -1.030608,1.70295 -1.539169,1.83166 -1.035354,0.26205 -3.949583,-0.006 -7.921565,-0.72882 -4.759926,-0.86612 -12.950892,-0.58776 -17.403614,0.59144 -13.211045,3.49862 -23.97214,12.00697 -29.940395,23.67264 -3.329806,6.5085 -4.375521,11.39885 -4.094941,19.15026 0.280171,7.74014 1.509433,12.15852 5.023359,18.05566 6.43157,10.79358 14.13155,17.71309 23.210773,20.8581 4.765853,1.65087 7.029545,1.95538 14.332387,1.92794 6.057274,-0.0228 6.952608,-0.10514 9.97882,-0.9181 7.592422,-2.03963 13.633787,-5.71051 19.927047,-12.10815 8.67478,-8.81866 11.02404,-15.72858 10.62306,-31.24569 l -0.16587,-6.41848 2.66159,-3.49591 c 2.6828,-3.52375 5.90359,-7.04257 6.44611,-7.04257 0.98116,0 5.97608,7.24697 7.87928,11.43179 3.94402,8.67225 3.70663,7.94134 3.9411,12.13422 0.28883,5.16509 -0.32189,11.68049 -1.36967,14.61189 -0.44427,1.24295 -1.07265,3.02772 -1.39639,3.96615 -2.33685,6.77381 -9.52006,17.69869 -15.42567,23.46075 -0.91371,0.89151 -3.03807,2.66475 -4.7208,3.94055 -2.54842,1.93213 -3.07683,2.4949 -3.16319,3.36891 -0.0749,0.75834 0.0666,1.11466 0.51057,1.28501 1.3535,0.51939 10.80754,0.84863 30.13475,1.04948 11.16732,0.11605 21.07202,0.36058 22.01045,0.54339 2.71411,0.52873 4.02088,1.6122 5.38841,4.46766 0.6566,1.37097 1.49756,2.6737 1.86882,2.89494 0.37126,0.22125 1.13552,1.37296 1.69836,2.55936 0.56284,1.1864 2.04126,3.66845 3.28539,5.51567 1.24411,1.84722 2.26203,3.63477 2.26203,3.97232 0,0.44386 -0.35422,0.67269 -1.27968,0.8267 -2.03026,0.33788 -55.18521,0.50379 -66.11667,0.20637 z"
       id="path2"
       transform="matrix(0.26458333,0,0,0.26458333,53.710415,81.491665)" />
    <path
       style="fill:#196767;fill-opacity:1;stroke-width:0.341247"
       d="m 199.55235,300.05786 c -0.74259,-0.1435 -0.72429,-0.218 0.80576,-3.28069 0.86109,-1.72361 3.33935,-6.49445 5.50726,-10.60185 l 3.94164,-7.46801 17.60429,0.19116 c 9.71567,0.1055 21.50363,0.43388 26.30609,0.73281 11.99079,0.74636 20.53026,0.84764 20.73665,0.24594 0.24401,-0.71139 -3.83044,-4.44546 -5.81948,-5.33332 -2.23835,-0.99914 -6.82455,-4.41057 -10.07243,-7.49236 -7.12261,-6.75837 -15.95778,-20.78827 -19.14186,-30.39652 -2.08945,-6.30512 -2.3424,-15.54375 -0.56941,-20.79681 1.08019,-3.20042 4.35082,-9.72845 5.30816,-10.59483 0.64767,-0.58613 0.71433,-0.57297 1.91075,0.37728 3.62907,2.88235 5.78829,4.48033 9.21653,6.82087 l 3.78702,2.58549 0.22324,5.85591 c 0.31985,8.39028 1.42469,13.15357 4.50147,19.4072 3.05168,6.20257 7.13871,11.0269 12.18319,14.381 5.39812,3.58924 12.9372,7.04557 15.36809,7.04557 0.54227,0 2.24001,0.32405 3.77277,0.72012 3.4129,0.88189 7.21651,0.73056 13.24574,-0.52697 10.10233,-2.10708 15.30681,-4.91254 22.25337,-11.9956 4.53052,-4.61954 9.00505,-11.71877 10.63158,-16.86792 0.75442,-2.38829 1.13456,-17.42709 0.55281,-21.86972 -0.71166,-5.43473 -4.92423,-12.44518 -11.26869,-18.75306 -3.85054,-3.82834 -7.24385,-6.31533 -11.40876,-8.36159 -4.80004,-2.3583 -6.52425,-2.60886 -16.99945,-2.47038 -10.21545,0.13504 -9.12612,-0.0975 -17.34426,3.70255 l -4.59331,2.12394 -1.40339,-0.74449 c -1.39,-0.7374 -9.01435,-7.56631 -12.95083,-11.59968 -2.40747,-2.46674 -2.41114,-2.4482 0.99507,-5.03056 6.10721,-4.63008 16.14265,-8.37296 26.47012,-9.87245 3.10099,-0.45025 5.42786,-0.53111 11.09054,-0.38542 8.02427,0.20645 12.33947,0.91451 19.13016,3.13897 9.2401,3.02684 15.10274,6.878 23.18579,15.23072 5.23554,5.41021 7.96633,9.17003 10.7495,14.8002 5.10424,10.32555 6.38967,17.22603 6.039,32.4185 -0.18679,8.09229 -0.46443,10.14736 -1.95937,14.50301 -1.38099,4.02365 -4.34593,10.56901 -5.9976,13.24023 -6.94918,11.23877 -18.91823,21.80669 -27.62702,24.39292 -4.37045,1.29788 -8.5437,4.5549 -7.21874,5.63387 0.56662,0.46142 3.82877,0.93113 12.36305,1.78015 3.94141,0.3921 9.69996,1.08169 12.79678,1.53241 3.09682,0.45072 8.08756,0.97775 11.09053,1.17118 3.48923,0.22474 6.69167,0.64864 8.87243,1.17443 1.87686,0.45252 4.94453,1.07903 6.81704,1.39224 1.87252,0.31322 3.45809,0.62301 3.52351,0.68842 0.89612,0.89613 -38.3049,4.45584 -71.42382,6.48576 -7.69512,0.47165 -18.36763,1.16555 -23.71669,1.54199 -5.34905,0.37645 -16.09834,0.83748 -23.88731,1.02451 -13.65474,0.32789 -56.0215,0.40359 -57.57751,0.10288 z"
       id="path3"
       transform="matrix(0.26458333,0,0,0.26458333,53.710415,81.491665)" />
    <path
       style="fill:#196767;fill-opacity:1;stroke-width:0.341247"
       d="m 187.43376,282.14266 c -2.64092,-3.70978 -9.54473,-14.16957 -13.80645,-20.91783 -5.06594,-8.02169 -21.06262,-34.0708 -22.63237,-36.85471 -0.63498,-1.12612 -3.89193,-6.3472 -7.23769,-11.60241 -6.76975,-10.63333 -9.33163,-15.38006 -9.00444,-16.6837 0.11409,-0.45459 0.86077,-1.66736 1.65928,-2.69506 0.79851,-1.0277 3.75236,-4.84274 6.56412,-8.47788 6.43968,-8.32542 7.78232,-9.67192 10.34762,-10.37738 4.26393,-1.17257 4.84431,-1.48414 4.84431,-2.60056 0,-0.79334 -0.44024,-1.45693 -1.96218,-2.95769 -1.78643,-1.76158 -6.73595,-4.83548 -7.78598,-4.83548 -0.93276,0 -19.84882,20.26609 -26.43677,28.32353 -9.69102,11.85269 -21.73603,24.622 -24.121567,25.57205 -0.997744,0.39736 -1.239004,0.3567 -2.593426,-0.43704 -1.879398,-1.1014 -5.185183,-4.64133 -5.497905,-5.88731 -0.537656,-2.1422 4.271558,-9.26519 14.493018,-21.46581 2.67308,-3.19066 7.55595,-9.10277 10.85082,-13.13802 8.54098,-10.46017 16.10862,-19.47284 19.34107,-23.03419 8.28326,-9.12609 18.14139,-21.97577 22.2531,-29.00602 0.76839,-1.31381 3.26,-5.20727 5.53692,-8.65214 2.27691,-3.44487 4.83939,-7.49626 5.6944,-9.00309 0.85501,-1.50684 3.30401,-5.09949 5.44223,-7.98368 l 3.88766,-5.243978 h 13.26766 13.26766 l 0.93074,2.815291 c 1.00558,3.041707 1.00445,4.317677 -0.007,7.722967 l -0.51869,1.74665 h -8.02561 c -4.81528,0 -8.63564,0.15361 -9.55066,0.38401 -3.17029,0.79829 -7.99084,7.61391 -7.99084,11.29798 0,2.07288 0.65024,3.51423 2.31463,5.13075 0.69765,0.67758 9.48399,7.15802 19.52519,14.40097 10.04121,7.24296 20.29548,14.6616 22.78727,16.48589 4.95895,3.63053 5.91973,4.10534 8.38526,4.14403 2.06971,0.0325 2.64825,-0.53676 5.55776,-5.46834 5.08666,-8.62184 10.36185,-19.27568 10.36185,-20.92695 0,-1.50921 -0.87728,-2.73875 -2.61784,-3.66899 -1.83752,-0.98207 -2.95322,-1.26681 -9.83769,-2.51065 -5.28966,-0.95571 -10.52712,-2.28995 -12.29121,-3.13119 -1.54199,-0.73532 -2.04546,-2.07755 -2.02108,-5.38822 0.0266,-3.61591 0.92611,-5.7428 2.7811,-6.576 1.11525,-0.50094 2.44737,-0.57476 9.65433,-0.53495 15.01932,0.0829 44.52624,1.34114 51.17373,2.18207 3.44268,0.43551 5.72299,1.23002 6.37166,2.22002 0.41327,0.63073 0.50515,1.55215 0.41365,4.14857 -0.14585,4.13878 -0.83377,5.69813 -3.9896,9.04348 -3.83979,4.07038 -6.74395,5.2535 -13.9832,5.69659 -4.25362,0.26036 -4.64175,0.34325 -5.97317,1.2757 -1.87432,1.31267 -4.54495,4.8739 -5.0179,6.69129 -0.20709,0.79573 -1.15734,2.81237 -2.11168,4.48143 -3.29782,5.76762 -10.76881,21.65515 -11.07741,23.55683 -0.30885,1.90325 0.98336,4.025 4.70178,7.7201 4.25163,4.22495 9.88559,8.94013 17.76655,14.86918 9.30481,7.00026 17.81128,13.89447 21.27325,17.24126 3.06834,2.96626 3.0712,2.97062 3.04735,4.65216 -0.0544,3.83343 -4.60987,8.26582 -8.49537,8.26582 -0.88894,0 -1.53973,-0.30255 -2.485,-1.15526 -0.70436,-0.6354 -1.81813,-1.38221 -2.47503,-1.65958 -1.73747,-0.73363 -8.37475,-5.58465 -14.39737,-10.52267 -8.83669,-7.2453 -19.84305,-15.02832 -24.74941,-17.50123 -4.948,-2.4939 -5.36276,-1.91 -22.6332,31.86248 -9.51751,18.61157 -14.31347,28.34534 -17.76616,36.05782 -1.16248,2.59668 -3.52869,7.10144 -5.25824,10.01057 -1.72955,2.90913 -4.18521,7.20885 -5.45702,9.55493 -3.35702,6.19263 -2.89397,5.86231 -4.687,3.34359 z m 0.10964,-59.5938 c 2.37241,-1.50454 7.63937,-8.1077 13.83911,-17.35003 3.98262,-5.93711 6.86365,-11.48013 7.16305,-13.78147 0.17421,-1.33904 0.0816,-1.69872 -0.65863,-2.55935 l -0.86133,-1.00136 h -22.3937 c -24.99941,0 -23.03647,-0.21315 -23.04607,2.50251 -0.007,1.94631 1.45855,5.54223 4.29507,10.53944 4.64449,8.18237 8.92031,14.28006 13.02927,18.58086 4.01851,4.20613 5.82695,4.84909 8.63323,3.0694 z m 11.49019,-55.51489 c 0.96023,-0.28516 2.55399,-1.15725 3.54168,-1.93798 l 1.79581,-1.4195 -4.24726,-4.08544 c -2.33599,-2.24699 -6.13184,-5.65914 -8.43521,-7.58256 -3.90303,-3.2592 -19.63145,-15.3818 -21.60677,-16.65331 l -0.88307,-0.56843 -3.89411,4.27428 c -2.14177,2.35085 -4.26246,4.89799 -4.71265,5.6603 -0.78683,1.33234 -0.79706,1.43104 -0.2642,2.54847 0.65207,1.3674 3.4335,3.49418 7.83395,5.99012 1.72942,0.98092 4.68001,2.89347 6.55687,4.2501 4.06989,2.9418 10.20218,6.85844 12.76327,8.15178 3.49398,1.76446 8.30595,2.33605 11.55169,1.37217 z"
       id="path4"
       transform="matrix(0.26458333,0,0,0.26458333,53.710415,81.491665)" />
    <path
       style="fill:#196767;fill-opacity:1;stroke-width:0.341247"
       d="m 107.79148,151.4285 c -8.282223,-7.98732 -12.028706,-13.07306 -15.112907,-20.51537 -3.6164,-8.72652 -5.024919,-17.50868 -5.370786,-33.487018 -0.342606,-15.827659 0.104826,-19.097153 4.131434,-30.1894 3.149697,-8.676589 4.770309,-11.806121 10.873559,-20.997699 5.54759,-8.354752 8.97423,-12.699682 13.86563,-17.581399 9.61763,-9.598599 21.053,-16.929185 33.24611,-21.3122537 5.29213,-1.9023651 15.8688,-5.0524599 19.35809,-5.7655038 4.23009,-0.86442759 10.64953,-1.29559209 19.24467,-1.29257611 8.90592,0.003125 15.24602,0.44431586 20.30421,1.41291661 9.56987,1.8325475 29.80662,10.294296 34.29536,14.340183 0.56306,0.507508 2.55935,2.0029 4.43621,3.323095 1.87686,1.320194 5.10165,3.930713 7.1662,5.801152 5.02664,4.554037 13.18769,12.976938 13.80645,14.249439 0.27379,0.563058 1.86364,3.145847 3.53299,5.739531 10.06317,15.635154 16.61467,35.232978 16.61467,49.700302 0,2.978659 -0.0161,3.036934 -1.08552,3.93682 -1.15526,0.972084 -1.91743,1.006523 -4.88631,0.22078 -0.75074,-0.198691 -3.66841,-0.450692 -6.4837,-0.56 -6.13112,-0.238051 -8.3802,-0.4451 -9.00071,-0.82859 -0.28311,-0.174978 -0.96417,-2.926394 -1.74918,-7.066618 -1.67296,-8.823376 -2.04293,-10.16845 -4.48426,-16.30292 -3.02726,-7.606785 -5.54916,-12.658037 -6.77049,-13.561012 -0.56626,-0.418649 -1.02955,-1.023285 -1.02955,-1.343637 0,-1.392962 -7.47136,-10.597863 -12.06942,-14.869836 -11.18295,-10.389865 -25.57972,-17.42708 -41.50641,-20.288536 -5.02111,-0.902113 -15.43401,-1.24281 -20.48044,-0.670095 -14.30133,1.623043 -30.34381,8.372864 -41.7972,17.586036 -8.32066,6.693188 -14.89069,14.986266 -20.14305,25.425755 -4.15129,8.251005 -5.39217,12.069672 -6.69035,20.588687 -1.0022,6.57676 -1.08727,16.893697 -0.18204,22.078407 1.46507,8.39125 2.69168,12.1332 6.38872,19.48975 1.72706,3.43658 3.2933,5.78109 6.07866,9.09915 3.11733,3.71353 3.25243,4.06815 2.2333,5.86236 -0.967,1.70242 -7.00247,8.602 -9.27295,10.60055 -0.8517,0.7497 -1.89724,1.35783 -2.33447,1.35783 -0.54936,0 -2.11943,-1.28027 -5.12652,-4.18028 z"
       id="path5"
       transform="matrix(0.26458333,0,0,0.26458333,53.710415,81.491665)" />
    <path
       style="fill:#45515c;fill-opacity:1;stroke-width:0.341247"
       d="m 199.45906,299.44575 c 0,-0.61083 9.68636,-19.47558 10.38703,-20.22935 0.32688,-0.35165 4.18903,-0.36825 20.0054,-0.086 10.78017,0.1924 20.21455,0.42441 20.9653,0.51556 3.01107,0.36562 20.16147,0.91315 21.87942,0.69851 1.164,-0.14544 1.83726,-0.39238 1.83726,-0.6739 0,-0.86676 -4.0085,-4.39577 -6.33364,-5.576 -2.44993,-1.24358 -7.05999,-4.86701 -10.25222,-8.05807 -5.19878,-5.1969 -10.88793,-13.42563 -15.00522,-21.70344 -2.61435,-5.25614 -3.75096,-8.39629 -4.42662,-12.22959 -0.66783,-3.78882 -0.67101,-11.30758 -0.006,-14.17503 0.96906,-4.17852 5.24683,-12.83883 6.34175,-12.83883 0.13312,0 1.3762,0.89306 2.7624,1.98457 1.3862,1.09151 4.43989,3.32759 6.78596,4.96906 4.25536,2.97734 4.26614,2.98834 4.49163,4.58445 0.12433,0.87997 0.2395,2.78218 0.25594,4.22713 0.0474,4.16752 0.96823,10.18794 2.07731,13.58187 2.06316,6.3135 6.33843,13.27723 10.48632,17.08053 3.39537,3.1133 11.24314,7.76067 15.85863,9.39132 2.5864,0.91378 9.91561,2.19044 12.58294,2.1918 5.29962,0.003 14.06801,-2.07514 19.25485,-4.56283 8.00875,-3.84111 16.00302,-12.35089 20.47881,-21.79939 1.9508,-4.11818 2.19957,-6.07063 2.20807,-17.32973 0.007,-8.94919 -0.20209,-10.32563 -2.21391,-14.59136 -1.76086,-3.73361 -4.37137,-7.31045 -8.347,-11.43681 -4.12951,-4.28606 -7.58508,-6.99862 -11.44348,-8.98291 -5.20994,-2.67936 -5.23346,-2.68314 -16.72112,-2.68314 -11.72652,0 -10.8807,-0.15447 -18.5178,3.38196 -5.37393,2.48844 -4.63632,2.55151 -8.70236,-0.74404 -3.37036,-2.73169 -11.85266,-10.9876 -11.85266,-11.53631 0,-0.48942 2.60635,-2.69042 4.92571,-4.15964 4.56291,-2.89044 12.02311,-5.76638 19.30297,-7.44137 3.45194,-0.79425 4.86883,-0.92278 11.77292,-1.06796 11.56622,-0.24321 17.83282,0.76819 26.81138,4.32724 7.08316,2.80773 11.34037,5.8116 18.57451,13.10611 5.98973,6.0397 8.5965,9.57364 11.73369,15.90704 4.59865,9.28386 5.49837,13.4067 5.73993,26.30265 0.26724,14.26669 -0.27085,17.38795 -4.65331,26.99207 -3.25837,7.14068 -6.0658,11.24638 -11.8494,17.32904 -6.14401,6.46169 -12.47406,10.95418 -18.51879,13.14292 -1.66081,0.60136 -3.71203,1.49915 -4.55827,1.99507 -1.63459,0.95794 -3.31677,2.71643 -3.31677,3.46723 0,0.79962 1.98671,1.18918 11.39053,2.23346 5.06953,0.56296 11.52921,1.32289 14.35484,1.68873 2.82563,0.36584 7.74805,0.90947 10.93871,1.20807 7.05695,0.66042 19.42464,3.00951 17.57424,3.338 -9.83572,1.7461 -54.46524,5.28624 -102.3742,8.12061 -3.47219,0.20542 -21.24691,0.452 -39.49938,0.54796 -31.1117,0.16357 -33.1863,0.13811 -33.1863,-0.40729 z"
       id="path6"
       transform="matrix(0.26458333,0,0,0.26458333,53.710415,81.491665)" />
  </g>
</svg>
